{
  "accessors": [
    {
      "bufferView": 1,
      "componentType": 5126,
      "count": 65532,
      "max": [
        41.325923919677734,
        101.46766662597656,
        148.87173461914062
      ],
      "min": [
        -96.365234375,
        -195.87979125976562,
        0.007694244384765625
      ],
      "type": "VEC3"
    },
    {
      "bufferView": 1,
      "byteOffset": 786384,
      "componentType": 5126,
      "count": 65532,
      "max": [
        0.9999997615814209,
        0.99983835220336914,
        0.99988031387329102
      ],
      "min": [
        -0.99999904632568359,
        -0.99991565942764282,
        -0.99997931718826294
      ],
      "type": "VEC3"
    },
    {
      "bufferView": 0,
      "componentType": 5125,
      "count": 318717,
      "max": [
        65531
      ],
      "min": [
        0
      ],
      "type": "SCALAR"
    },
    {
      "bufferView": 1,
      "byteOffset": 1572768,
      "componentType": 5126,
      "count": 65532,
      "max": [
        35.587215423583984,
        101.54194641113281,
        147.96347045898438
      ],
      "min": [
        -92.7001953125,
        -233.65396118164062,
        2.6373672485351562
      ],
      "type": "VEC3"
    },
    {
      "bufferView": 1,
      "byteOffset": 2359152,
      "componentType": 5126,
      "count": 65532,
      "max": [
        1,
        0.99999725818634033,
        0.99994397163391113
      ],
      "min": [
        -0.9999992847442627,
        -0.99996817111968994,
        -0.99998444318771362
      ],
      "type": "VEC3"
    },
    {
      "bufferView": 0,
      "byteOffset": 1274868,
      "componentType": 5125,
      "count": 298026,
      "max": [
        65531
      ],
      "min": [
        0
      ],
      "type": "SCALAR"
    },
    {
      "bufferView": 1,
      "byteOffset": 3145536,
      "componentType": 5126,
      "count": 65532,
      "max": [
        61.893829345703125,
        97.313949584960938,
        134.7550048828125
      ],
      "min": [
        -69.920509338378906,
        -233.24053955078125,
        0.0756988525390625
      ],
      "type": "VEC3"
    },
    {
      "bufferView": 1,
      "byteOffset": 3931920,
      "componentType": 5126,
      "count": 65532,
      "max": [
        0.99999827146530151,
        0.99922341108322144,
        0.99999934434890747
      ],
      "min": [
        -0.99999862909317017,
        -0.99997442960739136,
        -0.9999881386756897
      ],
      "type": "VEC3"
    },
    {
      "bufferView": 0,
      "byteOffset": 2466972,
      "componentType": 5125,
      "count": 306789,
      "max": [
        65531
      ],
      "min": [
        0
      ],
      "type": "SCALAR"
    },
    {
      "bufferView": 1,
      "byteOffset": 4718304,
      "componentType": 5126,
      "count": 65532,
      "max": [
        67.365165710449219,
        101.14186096191406,
        143.83489990234375
      ],
      "min": [
        -72.002174377441406,
        -224.54032897949219,
        0.74517059326171875
      ],
      "type": "VEC3"
    },
    {
      "bufferView": 1,
      "byteOffset": 5504688,
      "componentType": 5126,
      "count": 65532,
      "max": [
        0.99999982118606567,
        0.99994343519210815,
        0.99995690584182739
      ],
      "min": [
        -0.99999874830245972,
        -0.99997442960739136,
        -0.99992042779922485
      ],
      "type": "VEC3"
    },
    {
      "bufferView": 0,
      "byteOffset": 3694128,
      "componentType": 5125,
      "count": 285807,
      "max": [
        65531
      ],
      "min": [
        0
      ],
      "type": "SCALAR"
    },
    {
      "bufferView": 1,
      "byteOffset": 6291072,
      "componentType": 5126,
      "count": 65532,
      "max": [
        61.742759704589844,
        101.92280578613281,
        144.51995849609375
      ],
      "min": [
        -96.254669189453125,
        -220.06045532226562,
        0.004520416259765625
      ],
      "type": "VEC3"
    },
    {
      "bufferView": 1,
      "byteOffset": 7077456,
      "componentType": 5126,
      "count": 65532,
      "max": [
        0.99999922513961792,
        0.99998503923416138,
        0.99999159574508667
      ],
      "min": [
        -0.99999725818634033,
        -0.99998688697814941,
        -0.99999880790710449
      ],
      "type": "VEC3"
    },
    {
      "bufferView": 0,
      "byteOffset": 4837356,
      "componentType": 5125,
      "count": 279162,
      "max": [
        65531
      ],
      "min": [
        0
      ],
      "type": "SCALAR"
    },
    {
      "bufferView": 1,
      "byteOffset": 7863840,
      "componentType": 5126,
      "count": 65532,
      "max": [
        67.376060485839844,
        95.919876098632812,
        144.51995849609375
      ],
      "min": [
        -86.617317199707031,
        -200.36674499511719,
        0.004673004150390625
      ],
      "type": "VEC3"
    },
    {
      "bufferView": 1,
      "byteOffset": 8650224,
      "componentType": 5126,
      "count": 65532,
      "max": [
        0.99999856948852539,
        0.99994343519210815,
        0.99990928173065186
      ],
      "min": [
        -0.99999940395355225,
        -0.99993956089019775,
        -0.99999868869781494
      ],
      "type": "VEC3"
    },
    {
      "bufferView": 0,
      "byteOffset": 5954004,
      "componentType": 5125,
      "count": 301089,
      "max": [
        65531
      ],
      "min": [
        0
      ],
      "type": "SCALAR"
    },
    {
      "bufferView": 1,
      "byteOffset": 9436608,
      "componentType": 5126,
      "count": 65532,
      "max": [
        65.974372863769531,
        101.96858215332031,
        144.46578979492188
      ],
      "min": [
        -92.420684814453125,
        -198.55815124511719,
        0.61198806762695312
      ],
      "type": "VEC3"
    },
    {
      "bufferView": 1,
      "byteOffset": 10222992,
      "componentType": 5126,
      "count": 65532,
      "max": [
        0.99999940395355225,
        0.99992787837982178,
        0.99995678663253784
      ],
      "min": [
        -1,
        -0.99997717142105103,
        -0.99998676776885986
      ],
      "type": "VEC3"
    },
    {
      "bufferView": 0,
      "byteOffset": 7158360,
      "componentType": 5125,
      "count": 279117,
      "max": [
        65531
      ],
      "min": [
        0
      ],
      "type": "SCALAR"
    },
    {
      "bufferView": 1,
      "byteOffset": 11009376,
      "componentType": 5126,
      "count": 26245,
      "max": [
        62.253002166748047,
        101.96858215332031,
        140.32315063476562
      ],
      "min": [
        -86.305213928222656,
        -230.68936157226562,
        0.004840850830078125
      ],
      "type": "VEC3"
    },
    {
      "bufferView": 1,
      "byteOffset": 11324316,
      "componentType": 5126,
      "count": 26245,
      "max": [
        0.99999892711639404,
        0.99996089935302734,
        0.9998970627784729
      ],
      "min": [
        -0.9999992847442627,
        -0.99999779462814331,
        -0.99999868869781494
      ],
      "type": "VEC3"
    },
    {
      "bufferView": 0,
      "byteOffset": 8274828,
      "componentType": 5125,
      "count": 61935,
      "max": [
        26244
      ],
      "min": [
        0
      ],
      "type": "SCALAR"
    }
  ],
  "asset": {
    "extras": {
      "author": "Alex_Dalt (https://sketchfab.com/alex_dalt)",
      "license": "CC-BY-4.0 (http://creativecommons.org/licenses/by/4.0/)",
      "source": "https://sketchfab.com/models/70d8136f9db54954bcc1bb093ea89b96",
      "title": "Whole Baby"
    },
    "generator": "Sketchfab-3.25.4-rc2",
    "version": "2.0"
  },
  "bufferViews": [
    {
      "buffer": 0,
      "byteLength": 8522568,
      "byteOffset": 0,
      "name": "floatBufferViews",
      "target": 34963
    },
    {
      "buffer": 0,
      "byteLength": 11639256,
      "byteOffset": 8522568,
      "byteStride": 12,
      "name": "floatBufferViews",
      "target": 34962
    }
  ],
  "buffers": [
    {
      "byteLength": 20161824,
      "uri": "scene.bin"
    }
  ],
  "materials": [
    {
      "doubleSided": true,
      "emissiveFactor": [
        0,
        0,
        0
      ],
      "name": "Scene_-_Root",
      "pbrMetallicRoughness": {
        "baseColorFactor": [
          1,
          1,
          1,
          1
        ],
        "metallicFactor": 0,
        "roughnessFactor": 0.59999999999999998
      }
    }
  ],
  "meshes": [
    {
      "primitives": [
        {
          "attributes": {
            "NORMAL": 1,
            "POSITION": 0
          },
          "indices": 2,
          "material": 0,
          "mode": 4
        }
      ]
    },
    {
      "primitives": [
        {
          "attributes": {
            "NORMAL": 4,
            "POSITION": 3
          },
          "indices": 5,
          "material": 0,
          "mode": 4
        }
      ]
    },
    {
      "primitives": [
        {
          "attributes": {
            "NORMAL": 7,
            "POSITION": 6
          },
          "indices": 8,
          "material": 0,
          "mode": 4
        }
      ]
    },
    {
      "primitives": [
        {
          "attributes": {
            "NORMAL": 10,
            "POSITION": 9
          },
          "indices": 11,
          "material": 0,
          "mode": 4
        }
      ]
    },
    {
      "primitives": [
        {
          "attributes": {
            "NORMAL": 13,
            "POSITION": 12
          },
          "indices": 14,
          "material": 0,
          "mode": 4
        }
      ]
    },
    {
      "primitives": [
        {
          "attributes": {
            "NORMAL": 16,
            "POSITION": 15
          },
          "indices": 17,
          "material": 0,
          "mode": 4
        }
      ]
    },
    {
      "primitives": [
        {
          "attributes": {
            "NORMAL": 19,
            "POSITION": 18
          },
          "indices": 20,
          "material": 0,
          "mode": 4
        }
      ]
    },
    {
      "primitives": [
        {
          "attributes": {
            "NORMAL": 22,
            "POSITION": 21
          },
          "indices": 23,
          "material": 0,
          "mode": 4
        }
      ]
    }
  ],
  "nodes": [
    {
      "children": [
        1
      ],
      "name": "RootNode (gltf orientation matrix)",
      "rotation": [
        -0.70710678118654746,
        -0,
        -0,
        0.70710678118654757
      ]
    },
    {
      "children": [
        2
      ],
      "name": "RootNode (model correction matrix)"
    },
    {
      "children": [
        3,
        4,
        5,
        6,
        7,
        8,
        9,
        10
      ],
      "name": "whole baby.stl.cleaner.materialmerger.gles"
    },
    {
      "mesh": 0,
      "name": ""
    },
    {
      "mesh": 1,
      "name": ""
    },
    {
      "mesh": 2,
      "name": ""
    },
    {
      "mesh": 3,
      "name": ""
    },
    {
      "mesh": 4,
      "name": ""
    },
    {
      "mesh": 5,
      "name": ""
    },
    {
      "mesh": 6,
      "name": ""
    },
    {
      "mesh": 7,
      "name": ""
    }
  ],
  "scene": 0,
  "scenes": [
    {
      "name": "OSG_Scene",
      "nodes": [
        0
      ]
    }
  ]
}

